Coordinates
version=1
nRows=12
nColumns=34
inDegrees=yes

Units are S.I. units (second, meters, Newtons, ...)
If the header above contains a line with 'inDegrees', this indicates whether rotational values are in degrees (yes) or radians (no).

endheader
time	pelvis_tilt	pelvis_list	pelvis_rotation	pelvis_tx	pelvis_ty	pelvis_tz	hip_flexion_r	hip_adduction_r	hip_rotation_r	knee_angle_r	ankle_angle_r	subtalar_angle_r	mtp_angle_r	hip_flexion_l	hip_adduction_l	hip_rotation_l	knee_angle_l	ankle_angle_l	subtalar_angle_l	mtp_angle_l	lumbar_extension	lumbar_bending	lumbar_rotation	arm_flex_r	arm_add_r	arm_rot_r	elbow_flex_r	pro_sup_r	arm_flex_l	arm_add_l	arm_rot_l	elbow_flex_l	pro_sup_l
      8.06666670	    -11.54676878	     -0.60368009	     -1.33334205	      0.28560832	      0.57583237	     -0.01464299	     80.65662562	    -22.04554925	      0.09017383	    106.11613399	     41.38727249	     14.93240493	      0.00000000	     82.40332830	    -32.50751708	      0.37734029	    105.08592615	     38.22483104	     16.41402611	      0.00000000	    -43.87081298	     -0.38831298	      1.73695149	    122.42009348	     -4.47362820	     58.89132669	    126.25029552	     86.22947156	    131.74443200	     -8.19502583	     82.79196085	    122.20706939	     85.62218214
      8.08333330	    -12.34726083	     -0.52654274	     -1.24369222	      0.28616018	      0.56636939	     -0.01361548	     82.92384746	    -21.92264817	      0.94222723	    107.71691728	     41.31142188	     14.68990215	      0.00000000	     84.79004896	    -32.38906866	      1.31105629	    106.63455102	     37.93240040	     16.01910960	      0.00000000	    -44.32246821	     -0.37800941	      1.82479212	    122.64066877	     -4.38970178	     58.71020227	    126.69218237	     86.05966582	    132.06627882	     -8.08227706	     82.60632302	    122.09138727	     85.27427481
      8.10000000	    -13.21996484	     -0.32273600	     -1.24525723	      0.28002606	      0.55191068	     -0.01529908	     85.80215127	    -21.83812351	      2.12670770	    109.55430440	     41.27209520	     14.46573521	      0.00000000	     87.59320410	    -32.01855199	      2.28443633	    108.52670332	     38.12307605	     15.55305677	      0.00000000	    -44.59014837	     -0.34695683	      2.01271851	    122.97549576	     -4.47738496	     58.42638812	    126.88839286	     85.75360524	    132.54223036	     -8.01429024	     81.99014310	    122.20866242	     84.74491694
      8.11666670	    -13.63697656	     -0.20532743	     -1.33234068	      0.27598125	      0.54101586	     -0.01438505	     88.39051762	    -21.57065641	      3.37250225	    111.34402720	     41.19277166	     14.56953465	      0.00000000	     90.08428503	    -31.76833267	      3.34362638	    110.27710771	     38.29348963	     15.55172548	      0.00000000	    -45.34613557	     -0.46787121	      2.30788816	    123.72039785	     -4.46387683	     58.01707145	    126.87834883	     85.53015024	    133.10871105	     -7.27842669	     81.83787910	    122.67959731	     84.44377598
      8.13333330	    -14.25080694	     -0.05892927	     -1.41055582	      0.27808623	      0.53159945	     -0.01384503	     90.84802580	    -21.31320644	      4.49684601	    113.17884292	     41.13859763	     14.01343091	      0.00000000	     92.41304718	    -31.64842273	      4.32071598	    111.84440309	     38.61449225	     15.88506875	      0.00000000	    -45.68390362	     -0.56880669	      2.72868884	    123.97172655	     -4.55125766	     58.06534670	    126.99846219	     85.27971069	    132.97229243	     -6.67619679	     82.10459938	    123.39395233	     84.14967520
      8.15000000	    -14.53388753	      0.12873781	     -1.33606492	      0.27819880	      0.52022958	     -0.01301947	     92.80156878	    -21.20119792	      5.62918961	    114.88195527	     41.59573190	     13.49088449	      0.00000000	     94.38911903	    -31.48289684	      5.12865197	    113.50136371	     39.10666476	     16.08698778	      0.00000000	    -46.28042443	     -0.64132724	      3.06021100	    124.19971418	     -4.41327316	     58.10723299	    126.88822309	     85.15369003	    132.83165929	     -6.12205325	     82.40823135	    123.99971577	     84.03612017
      8.16666670	    -15.43636545	      0.07433498	     -1.35375802	      0.27725160	      0.50531201	     -0.01250514	     95.46767957	    -20.93673421	      6.40612853	    116.62847975	     41.85459879	     13.30688751	      0.00000000	     97.47411478	    -31.36927322	      6.58684463	    115.53877628	     38.79937436	     15.62387104	      0.00000000	    -45.86966127	     -0.57356725	      3.08237585	    123.76947870	     -3.91093912	     58.52043797	    127.38311296	     84.73426053	    132.53873054	     -6.43398329	     82.76807536	    124.90977321	     83.62482078
      8.18333330	    -16.13204637	      0.10173956	     -1.24249047	      0.27613658	      0.49409330	     -0.01276275	     98.02195963	    -20.80275299	      7.36304398	    118.45745313	     42.05022556	     13.29963767	      0.00000000	    100.07829300	    -31.25411330	      7.72698202	    117.25482650	     38.91958696	     15.53302887	      0.00000000	    -45.71793103	     -0.49366975	      3.17086486	    123.51909424	     -3.65704983	     58.74007919	    127.41081799	     84.29453468	    131.96156473	     -6.20285605	     82.95795507	    125.33896589	     83.12334089
      8.20000000	    -15.99026787	      0.10190927	     -1.07821639	      0.27094837	      0.48217205	     -0.01052738	     99.93261512	    -20.72211180	      8.13317513	    120.28769220	     42.37382281	     13.00044167	      0.00000000	    102.15328305	    -31.06464770	      8.99552087	    119.04907182	     38.58202245	     15.24862221	      0.00000000	    -46.48434423	     -0.64270622	      3.02901866	    123.73683679	     -3.38392079	     58.44371494	    127.04833112	     84.16679795	    132.33221943	     -5.89110043	     82.59500742	    125.14425731	     82.96899652
      8.21666670	    -16.31915994	     -0.05500084	     -1.02489897	      0.27419413	      0.47182116	     -0.01324608	    101.73341828	    -20.67350242	      8.87719262	    121.91180107	     42.62837879	     13.15539454	      0.00000000	    104.73991352	    -31.02592655	     10.45896361	    120.98172078	     37.67922741	     14.49622415	      0.00000000	    -46.18754185	     -0.44453175	      3.18369335	    122.58518583	     -3.21629027	     58.23341093	    127.58412210	     83.84891222	    131.17824437	     -5.58001713	     82.22914603	    125.70316044	     82.45778313
      8.23333330	    -16.11809741	     -0.00133524	     -1.14507514	      0.27203459	      0.46345632	     -0.01309165	    103.02419196	    -20.44691006	      9.69366129	    123.30680431	     42.58124969	     13.11940097	      0.00000000	    106.33241265	    -31.21197344	     11.42800178	    122.58076688	     37.01192057	     14.10127551	      0.00000000	    -46.88592992	     -0.78333006	      2.89984018	    122.44128834	     -3.12750622	     58.30197500	    127.50367516	     83.77307576	    131.11644968	     -5.78897310	     82.04483976	    125.08707027	     82.29111872
      8.25000000	    -15.94678492	     -0.12296035	     -1.16083978	      0.27162740	      0.45257948	     -0.01667602	    104.58556482	    -20.58427298	     10.51301378	    124.82204003	     42.36326007	     12.33028602	      0.00000000	    108.23728411	    -30.95019175	     12.53378452	    124.32467898	     36.47097850	     13.30358020	      0.00000000	    -47.03648241	     -0.60652280	      2.92256590	    121.31284100	     -2.90841125	     58.27101523	    127.49270821	     83.56361870	    129.86674550	     -5.48042481	     82.01197890	    124.79052947	     81.75720579
